# xmcd
#
# Track frame offsets: 
#        150
#        15898
#        31896
#        47876
#        62280
#        77223
#        91536
#        113675
#        128991
#        146337
#        159848
#
# Disc length: 2415 seconds
#
# Revision: 4
# Processed by: cddbd v1.5.2PL0 Copyright (c) Steve Scherf et al.
# Submitted via: ExactAudioCopy v1.0b3
#
DISCID=73096d0b
DTITLE=Yuri - Mi Tributo Al Festival - Zona Preferente
DYEAR=2012
DGENRE=Latin
TTITLE0=Ay Amor
TTITLE1=Yuri (A Dueto Con Napoleon) - Vive
TTITLE2=Yuri  (A Dueto Con Maria Medina) - Victima O Ladron
TTITLE3=Yuri  (A Dueto Con Crystal) - Suavemente
TTITLE4=Yuri (A Dueto Con Lila Deneken) - Se Solicita Una Aventura
TTITLE5=Yuri (A Dueto Con Natalia Sosa) - Mi Vida
TTITLE6=Que Alegre Va Maria
TTITLE7=Yuri (A Dueto Con Arianna) - Si Hoy Me Quieres Olvidar
TTITLE8=Yuri  (A Dueto Con Alexander Acha) - Al Final
TTITLE9=Yuri  (A Dueto Con Lupita D'Alessio) - Como Tu
TTITLE10=Yuri (E Invitados) - Deja
EXTD=
EXTT0=
EXTT1=
EXTT2=
EXTT3=
EXTT4=
EXTT5=
EXTT6=
EXTT7=
EXTT8=
EXTT9=
EXTT10=
PLAYORDER=
